<svg width="512" height="512" viewBox="0 0 512 512" fill="none" xmlns="http://www.w3.org/2000/svg">
<path d="M0 84C0 37.6081 37.6081 0 84 0H428C474.392 0 512 37.6081 512 84V428C512 474.392 474.392 512 428 512H84C37.6081 512 0 474.392 0 428V84Z" fill="#448C74"/>
<path d="M196.608 465.227H36.8143V455.121L38.8719 454.751L76.6561 447.951V264.824L79.032 264.707L220.11 257.739L220.636 257.713L221.128 257.901L246.914 267.772C261.718 268.898 275.268 271.304 287.553 275.007C293.804 276.827 298.165 278.008 303.097 280.12C308.041 282.237 313.508 285.262 322.155 290.738C332.816 297.491 342.363 305.742 350.793 315.482C358.939 324.895 366.438 335.859 373.299 348.358L373.961 349.572L373.984 349.617C385.716 372.366 395.914 391.056 404.583 405.7L406.277 408.403C414.68 421.695 422.067 431.668 428.44 438.395C435.324 445.661 440.979 449.413 445.43 450.353L445.54 450.376L445.647 450.409C446.535 450.682 448.305 450.924 450.758 451.079C453.136 451.229 455.947 451.287 458.779 451.265C464.545 451.219 470.032 450.844 472.125 450.362L473.717 455.076L460.495 461.061C455.975 464.086 450.824 466.529 445.061 468.403C439.697 470.289 434.321 471.614 428.933 472.372C423.616 473.12 418.708 473.5 414.216 473.5C401.183 473.5 388.814 470.46 377.14 464.394C365.472 458.33 354.13 448.91 343.097 436.239L343.069 436.207L343.043 436.174C332.488 423.175 321.53 406.881 310.165 387.317L310.158 387.307C296.273 363.123 281.966 341.526 267.242 322.51C252.842 303.912 237.081 293.718 219.275 279.829L156.766 274.08V447.951L194.551 454.751L196.608 455.121V465.227Z" fill="white" stroke="white" stroke-width="5"/>
<path d="M288.798 38.5C320.921 38.5 346.786 45.9304 366.132 61.0586C385.193 75.9639 397.639 98.1191 403.647 127.236L403.928 128.628L403.933 128.657L403.939 128.687C406.185 141.636 404.007 152.181 396.802 159.762C389.75 167.182 380.121 170.774 368.239 170.774C357.238 170.774 348.598 167.664 342.841 161.011L342.821 160.987L342.802 160.965C337.404 154.414 333.241 145.519 330.216 134.428C327.226 127.962 322.743 123.789 316.746 121.682L316.732 121.677L316.716 121.671C310.648 119.45 301.408 118.263 288.798 118.263H162.341C152.191 118.263 143.939 119.108 137.526 120.744C131.091 122.385 126.716 124.769 124.063 127.682C121.395 130.611 119.187 135.551 117.671 142.86C116.165 150.123 115.393 159.468 115.393 170.945C115.393 181.725 115.175 191.173 115.756 198.916C116.345 206.763 117.727 212.124 120.379 215.157L120.493 215.288L120.589 215.434C126.132 223.9 137.193 230.574 151.993 236.19C166.709 241.774 184.646 246.144 203.416 250.296C222.118 254.432 241.668 258.355 259.339 263.025C276.99 267.69 293.062 273.171 304.803 280.54L303.274 285.149L156.353 273.341V302.638L153.718 302.496C119.566 300.66 91.0187 289.487 72.5392 269.197C52.2377 246.907 42.3 214.008 42.3 170.945C42.3 127.027 51.9517 93.8226 71.717 71.8154C91.8005 49.4583 122.18 38.5 162.341 38.5H288.798Z" fill="white" stroke="white" stroke-width="5"/>
</svg>
